<svg xmlns="http://www.w3.org/2000/svg" viewBox="0 0 512 512">
  <rect width="512" height="512" rx="64" fill="#09090b"/>
  <path d="M256 96c-88.4 0-160 71.6-160 160s71.6 160 160 160 160-71.6 160-160S344.4 96 256 96zm0 280c-66.3 0-120-53.7-120-120s53.7-120 120-120 120 53.7 120 120-53.7 120-120 120z" fill="#f59e0b"/>
  <path d="M256 176c-44.2 0-80 35.8-80 80s35.8 80 80 80 80-35.8 80-80-35.8-80-80-80zm0 120c-22.1 0-40-17.9-40-40s17.9-40 40-40 40 17.9 40 40-17.9 40-40 40z" fill="#f59e0b"/>
  <path d="M340 140l-28 28c-6 6-6 16 0 22s16 6 22 0l28-28c6-6 6-16 0-22s-16-6-22 0z" fill="#f59e0b"/>
  <path d="M180 340l-28 28c-6 6-6 16 0 22s16 6 22 0l28-28c6-6 6-16 0-22s-16-6-22 0z" fill="#f59e0b"/>
  <rect x="232" y="80" width="48" height="64" rx="8" fill="#f59e0b"/>
  <rect x="232" y="368" width="48" height="64" rx="8" fill="#f59e0b"/>
</svg>
